<?xml version="1.0" encoding="utf-8"?>
<!-- Generator: Adobe Illustrator 16.0.0, SVG Export Plug-In . SVG Version: 6.00 Build 0)  -->
<!DOCTYPE svg PUBLIC "-//W3C//DTD SVG 1.1//EN" "http://www.w3.org/Graphics/SVG/1.1/DTD/svg11.dtd">
<svg version="1.1" id="Layer_1" xmlns="http://www.w3.org/2000/svg" xmlns:xlink="http://www.w3.org/1999/xlink" x="0px" y="0px"
	 width="560px" height="88.289px" viewBox="0 0 560 88.289" enable-background="new 0 0 560 88.289" xml:space="preserve">
<defs>
	<style>
		#one {
			fill: #ffffff;
			opacity: 0.1;
		}

		#two {
			fill: #ffffff;
			opacity: 0.1;
		}

		@keyframes blink {
			0% {
				opacity: 0.1;
			}
			50% {
				opacity: 0.4;
			}
			100% {
				opacity: 0.1;
			}
		}
	</style>
</defs>
<path id="one" d="M38.639,79.737H57.08c7.253,0,13.459-1.165,18.612-3.494c7.292-3.053,10.938-7.52,10.938-13.401V14.563
	c0-2.137-0.82-3.493-2.463-4.065c-1.298-0.306-3.015-0.458-5.153-0.458c-2.978,0-4.467,1.508-4.467,4.524v10.709H38.467
	c-18.365,0-27.89,5.689-28.578,17.066c-0.229,3.779-0.343,8.668-0.343,14.66c0,2.98,0.057,5.386,0.171,7.218
	C10.328,74.564,19.969,79.737,38.639,79.737 M21.974,42.568c0-4.771,5.402-7.159,16.206-7.159h36.368v27.205
	c0,4.657-6.224,6.986-18.671,6.986h-17.41c-5.154,0-8.61-0.229-10.365-0.688c-4.085-1.029-6.128-3.321-6.128-6.87V42.568z
	 M178.95,79.336c-1.642-0.612-2.464-1.984-2.464-4.123V14.448c0-2.977,1.489-4.466,4.469-4.466c2.786,0,4.524,0.115,5.211,0.343
	c1.603,0.535,2.405,1.91,2.405,4.123v60.766c0,3.017-1.488,4.523-4.468,4.523C181.163,79.737,179.446,79.603,178.95,79.336
	 M99.962,74.991c3.023,2.361,7.744,3.874,14.16,4.538c1.292,0.148,3.18,0.249,5.672,0.302c2.486,0.058,32.875,0.086,36.783,0.086
	c2.879,0,4.316-1.459,4.316-4.371c0-3.614-1.438-5.424-4.316-5.424c-3.798,0-34.111-0.082-36.562-0.248
	c-2.455-0.164-4.328-0.395-5.616-0.689c-5.9-1.438-8.851-4.664-8.851-9.681v-0.388h58.025c2.176,0,3.264-1.603,3.264-4.812V41.526
	c0-5.2-2.784-9.089-8.353-11.671c-4.021-2.028-9.09-3.042-15.212-3.042H121.48c-7.487,0-13.497,1.071-18.032,3.208
	c-6.639,2.95-9.957,7.488-9.957,13.608v19.526C93.491,67.69,95.648,71.634,99.962,74.991 M105.162,42.909
	c0-2.693,2.453-4.497,7.358-5.421c3.464-0.663,9.863-0.995,19.193-0.995c15.819,0,23.729,1.992,23.729,5.975v6.527h-50.281V42.909z
	 M379.325,16.498c-1.682-1.145-2.521-2.71-2.521-4.696c0-1.983,0.84-3.552,2.521-4.696c1.449-0.993,3.229-1.489,5.324-1.489
	c2.101,0,3.875,0.496,5.328,1.489c1.679,1.144,2.521,2.712,2.521,4.696c0,1.986-0.843,3.551-2.521,4.696
	c-1.453,0.993-3.228,1.49-5.328,1.49C382.554,17.987,380.774,17.49,379.325,16.498"/>
<path id="two" d="M542.108,30.501c-4.027-2.024-9.089-3.036-15.219-3.036h-21.789c-7.486,0-13.5,1.069-18.026,3.208
	c-6.646,2.941-9.97,7.486-9.97,13.597v19.535c0,4.526,2.16,8.48,6.475,11.841c3.036,2.348,7.753,3.856,14.17,4.525
	c1.279,0.153,3.17,0.248,5.671,0.307c2.482,0.056,32.865,0.076,36.779,0.076c2.885,0,4.317-1.453,4.317-4.354
	c0-3.629-1.433-5.423-4.317-5.423c-3.799,0-34.104-0.098-36.568-0.248c-2.445-0.174-4.315-0.401-5.615-0.707
	c-5.9-1.433-8.842-4.66-8.842-9.683v-0.382h58.015c2.179,0,3.266-1.604,3.266-4.812V42.169
	C550.454,36.976,547.666,33.08,542.108,30.501z M539.073,49.636h-50.281v-6.092c0-2.693,2.444-4.488,7.354-5.404
	c3.455-0.668,9.854-0.993,19.191-0.993c15.813,0,23.736,1.986,23.736,5.958V49.636z M272.24,13.735
	c-4.125-1.757-11.209-2.636-21.255-2.636h-19.802c-21.503,0-32.254,6.302-32.254,18.886v32.197c0,7.104,3.857,12.221,11.572,15.354
	c5.041,2.214,11.936,3.321,20.682,3.321h19.802c21.58,0,32.368-6.243,32.368-18.732v-32.14
	C283.354,22.023,279.649,16.6,272.24,13.735z M270.636,61.838c0,5.691-6.416,8.537-19.268,8.537h-20.223
	c-13.005,0-19.498-2.846-19.498-8.537V30.292c0-5.882,6.493-8.823,19.498-8.823h20.165c12.89,0,19.325,2.941,19.325,8.823V61.838z
	 M327.085,30.884c0,3.743-1.49,5.614-4.45,5.614h-18.447v39.854c0,3.018-1.488,4.526-4.468,4.526c-2.979,0-4.717-0.134-5.213-0.4
	c-1.605-0.575-2.407-1.949-2.407-4.126V27.274c0-10.809,9.033-16.213,27.099-16.213c3.094,0,5.021,0.173,5.786,0.516
	c1.394,0.688,2.101,2.387,2.101,5.1c0,2.979-1.49,4.468-4.45,4.468c-5.423,0-8.955,0.115-10.598,0.343
	c-5.117,0.765-7.678,2.407-7.678,4.927h18.275C325.595,26.415,327.085,27.905,327.085,30.884z M367.76,30.884
	c0,3.743-1.488,5.614-4.469,5.614h-18.447v39.854c0,3.018-1.488,4.526-4.468,4.526c-2.979,0-4.717-0.134-5.213-0.4
	c-1.605-0.575-2.407-1.949-2.407-4.126V27.274c0-10.809,9.033-16.213,27.099-16.213c3.094,0,5.021,0.173,5.786,0.516
	c1.412,0.688,2.119,2.387,2.119,5.1c0,2.979-1.488,4.468-4.469,4.468c-5.423,0-8.955,0.115-10.598,0.343
	c-5.117,0.765-7.678,2.407-7.678,4.927h18.275C366.271,26.415,367.76,27.905,367.76,30.884z M472.618,76.677
	c0,3.018-3.553,4.525-7.296,4.525h-36.359c-8.573,0-14.761-0.822-18.542-2.463c-6.492-2.598-9.739-7.314-9.739-14.15V42.953
	c0-11.114,8.594-16.671,25.762-16.671h39.51c3.133,0,6.358,1.7,6.358,5.098c0,3.4-3.226,5.099-6.358,5.099h-38.65
	c-9.682,0-14.532,2.044-14.532,6.13v21.485c0,4.64,5.499,6.969,16.537,6.969h37.104C469.429,71.062,472.618,72.934,472.618,76.677z
	 M390.332,31.056v46.118c0,3.018-1.509,4.525-4.526,4.525c-2.94,0-4.66-0.134-5.156-0.4c-1.564-0.572-2.348-1.949-2.348-4.125
	V31.056c0-2.979,1.509-4.45,4.526-4.45c2.901,0,4.601,0.133,5.099,0.401C389.53,27.561,390.332,28.936,390.332,31.056z"/>
</svg>
