<?xml version="1.0" encoding="utf-8"?>
<!-- Generator: Adobe Illustrator 16.0.0, SVG Export Plug-In . SVG Version: 6.00 Build 0)  -->
<!DOCTYPE svg PUBLIC "-//W3C//DTD SVG 1.1//EN" "http://www.w3.org/Graphics/SVG/1.1/DTD/svg11.dtd">
<svg version="1.1" id="Layer_1" xmlns="http://www.w3.org/2000/svg" xmlns:xlink="http://www.w3.org/1999/xlink" x="0px" y="0px"
	 width="400px" height="400px" viewBox="0 0 400 400" enable-background="new 0 0 400 400" xml:space="preserve">

<defs>
  <style>
    #sunray1 circle {
      stroke-dasharray: 10;
      stroke-dashoffset: 10;
      transform-origin: 239.416px 217.5px;
      animation: rotate 4s linear infinite;
    }

    .line {
      stroke-dasharray: 50;
      stroke-dashoffset: 2400;
      animation: dash 10s linear infinite;
    }

    #sunray2 circle {
      stroke-dasharray: 7;
      stroke-dashoffset: 7;
      transform-origin: 239.416px 217.5px;
      animation: rotate 4s linear infinite;
    }

    #Vehicle {
      animation: stutter 1.2s linear infinite;
    }

    #Clouds #clouds_1_ {
      animation: cloudmove 10s linear infinite;
    }

    #Vehicle #Smoke1_1_ {
      opacity: 0;
      animation: smokepuff 2s linear infinite alternate;
    }

    #Vehicle #Smoke3_1_ {
      opacity: 0;
      animation: smokepuff 2s linear infinite 2s alternate;
    }

    #Vehicle #Smoke2_1_ {
      opacity: 0;
    }

    @keyframes dash {
      0% {
        stroke-dashoffset: inherit;
      }
      100% {
        stroke-dashoffset: 2400;
      }
    }

    @keyframes rotate {
      0% {
        transform: rotate(0deg);
      }
      100% {
        transform: rotate(360deg);
      }
    }

    @keyframes stutter {
      0% {
        transform: translateY(0px);
      }
      25% {
        transform: translateY(2px);
      }
      50% {
        transform: translateY(0px);
      }
      75% {
        transform: translateY(2px);
      }
      100% {
        transform: translateY(0px);
      }
    }

    @keyframes cloudmove {
      0% {
        transform: translateY(0px);
      }
      25% {
        transform: translateY(2px);
      }
      50% {
        transform: translateY(0px);
      }
      75% {
        transform: translateY(2px);
      }
      100% {
        transform: translateY(0px);
      }
    }

    @keyframes smokepuff {
      0% {
        opacity: 0;
      }
      100% {
        opacity: 1;
      }
    }

    @keyframes movenigga {
      0% {
        transform: translateX(-300px);
      }
      50%, 60% {
        transform: translateX(0px);
      }
      100% {
        transform: translateX(1300px);
      }
    }
  </style>
</defs>
<g id="Background">
	<rect fill="#1559BC" width="400" height="400"/>
</g>
<g id="Landscape">
	<path id="landscape" opacity="0.6" fill="#3FA9F5" enable-background="new    " d="M328.98,212.852
		c0,33.614-12.599,64.287-33.342,87.543l-30.672-59.599c-0.178-0.348-0.523-0.569-0.917-0.592c-0.397-0.022-0.769,0.178-0.981,0.503
		l-29.326,43.335l-31.553-77.353c-0.17-0.412-0.562-0.689-1.006-0.689h-0.021c-0.436,0-0.835,0.254-1.012,0.654l-33.6,74.47
		l-32.424-148.558c-0.104-0.496-0.54-0.845-1.042-0.86c-0.51-0.015-0.961,0.324-1.101,0.812L88.116,286.184
		c-14.09-20.951-22.311-46.181-22.311-73.334c0-72.676,58.911-131.585,131.587-131.585
		C270.068,81.263,328.98,140.175,328.98,212.852z"/>
	<g id="Lines">
		<g>
			<g>
					<line class="line" fill="none" stroke="#1559BC" stroke-width="5" stroke-linecap="round" stroke-miterlimit="10" x1="18" y1="145.5" x2="350" y2="145.5"/>
			</g>
		</g>
		<g>
			<g>

					<line class="line" fill="none" stroke="#1559BC" stroke-width="5" stroke-linecap="round" stroke-miterlimit="10" x1="101" y1="109.5" x2="350" y2="109.5"/>
			</g>
		</g>
		<g>
			<g>

					<line class="line" fill="none" stroke="#1559BC" stroke-width="5" stroke-linecap="round" stroke-miterlimit="10" x1="99" y1="69.5" x2="350" y2="69.5"/>
			</g>
		</g>
		<g>
			<g>

					<line class="line" fill="none" stroke="#1559BC" stroke-width="5" stroke-linecap="round" stroke-miterlimit="10" x1="57" y1="181.5" x2="350" y2="181.5"/>
			</g>
		</g>
		<g>
			<g>

					<line class="line" fill="none" stroke="#1559BC" stroke-width="5" stroke-linecap="round" stroke-miterlimit="10" x1="33" y1="252.5" x2="350" y2="252.5"/>
			</g>
		</g>
		<g>
			<g>

					<line class="line" fill="none" stroke="#1559BC" stroke-width="5" stroke-linecap="round" stroke-miterlimit="10" x1="12" y1="217.5" x2="350" y2="217.5"/>
			</g>
		</g>
		<g>
			<g>
					<line class="line" fill="none" stroke="#1559BC" stroke-width="5" stroke-linecap="round" stroke-miterlimit="10" x1="16" y1="288.5" x2="350" y2="288.5"/>
			</g>
		</g>
	</g>
	<g id="Downline">
		<g>

				<line fill="none" stroke="#1B1464" stroke-width="3" stroke-linecap="round" stroke-miterlimit="10" x1="36" y1="310.5" x2="111" y2="310.5"/>

				<line fill="none" stroke="#1B1464" stroke-width="3" stroke-linecap="round" stroke-miterlimit="10" stroke-dasharray="3,10,149,0" x1="121" y1="310.5" x2="284" y2="310.5"/>

				<line fill="none" stroke="#1B1464" stroke-width="3" stroke-linecap="round" stroke-miterlimit="10" x1="284" y1="310.5" x2="359" y2="310.5"/>
		</g>
	</g>
</g>
<g id="Clouds">
	<path id="clouds_1_" fill="#FF9640" d="M332.031,162.357c0,6.657-5.247,11.941-11.827,12.228c-0.047,0-27.128,0.018-27.128,0.018
		c-5.689,0-10.301-4.538-10.301-10.227c0-5.188,3.828-9.439,8.813-10.155c1.289-4.209,5.212-7.254,9.847-7.254
		c0.459,0,0.912,0.036,1.359,0.095c-0.023,0.053-0.041,0.11-0.064,0.163c0.022-0.05,0.041-0.102,0.064-0.151
		c1.612-3.576,5.206-6.059,9.385-6.059c5.345,0,9.738,4.065,10.245,9.271C327.93,151.545,332.031,156.471,332.031,162.357z
		 M332.575,247.23c-0.4-4.111-3.871-7.323-8.092-7.323c-3.303,0-6.141,1.961-7.414,4.786c-0.019,0.039-0.033,0.08-0.051,0.119
		c0.019-0.041,0.031-0.088,0.051-0.129c-0.354-0.049-0.711-0.076-1.074-0.076c-3.66,0-6.758,2.406-7.777,5.729
		c-3.937,0.565-6.96,3.924-6.96,8.021c0,4.496,3.641,8.078,8.135,8.078c0,0,21.392-0.014,21.43-0.014
		c5.196-0.227,9.342-4.4,9.342-9.658C340.163,252.115,336.924,248.227,332.575,247.23z M58.637,163.574
		c0,8.437,6.38,15.134,14.381,15.498c0.058,0,32.988,0.021,32.988,0.021c6.918,0,12.524-5.75,12.524-12.962
		c0-6.576-4.654-11.963-10.715-12.871c-1.567-5.335-6.338-9.194-11.972-9.194c-0.559,0-1.111,0.046-1.655,0.121
		c0.03,0.067,0.05,0.14,0.078,0.207c-0.027-0.063-0.05-0.129-0.078-0.192c-1.96-4.533-6.331-7.68-11.413-7.68
		c-6.498,0-11.84,5.153-12.458,11.751C63.625,149.871,58.637,156.113,58.637,163.574z M48.288,243.212
		c0,4.896,3.703,8.783,8.346,8.994c0.034,0,19.145,0.015,19.145,0.015c4.015,0,7.268-3.339,7.268-7.523
		c0-3.816-2.701-6.943-6.218-7.471c-0.91-3.096-3.679-5.334-6.948-5.334c-0.324,0-0.645,0.024-0.96,0.068
		c0.018,0.039,0.029,0.081,0.045,0.12c-0.016-0.037-0.029-0.075-0.045-0.11c-1.138-2.632-3.674-4.457-6.623-4.457
		c-3.771,0-6.872,2.989-7.23,6.819C51.182,235.259,48.288,238.882,48.288,243.212z M205.081,185.647
		c-0.147,0-0.296,0.007-0.437,0.007c0.096-0.532,0.141-1.079,0.141-1.633c0-5.308-4.303-9.61-9.61-9.61
		c-4.546,0-8.354,3.156-9.352,7.399c-0.089-0.007-0.17-0.007-0.259-0.007c-5.308,0-9.61,4.291-9.61,9.598
		c0,5.308,4.302,9.599,9.61,9.599H205v0.018c0,0.006,0.085,0.006,0.188,0.006c4.252,0,7.635-3.444,7.635-7.688
		C212.822,189.085,209.332,185.647,205.081,185.647z M294.718,215.469c-0.13,0-0.261,0.006-0.383,0.006
		c0.084-0.467,0.122-0.945,0.122-1.435c0-4.668-3.784-8.448-8.452-8.448c-3.998,0-7.347,2.784-8.226,6.518
		c-0.076-0.008-0.148,0.009-0.228,0.009c-4.668,0-8.452,3.758-8.452,8.426s3.784,8.457,8.452,8.457H294v-0.017
		c0,0.008,0.398,0.008,0.49,0.008c3.738,0,6.931-3.03,6.931-6.764C301.421,218.49,298.457,215.469,294.718,215.469z"/>
</g>
<g id="Sun">
	<circle id="suncore" fill="#FFFFFF" cx="239.416" cy="217.5" r="9.61"/>
	<g id="sunray1">

			<circle fill="none" stroke="#FFFFFF" stroke-width="2" stroke-linecap="round" stroke-miterlimit="10" stroke-dasharray="10.1192,7.0835" cx="239.416" cy="217.5" r="16.432"/>
	</g>
	<g id="sunray2">

			<circle fill="none" stroke="#FFFFFF" stroke-width="2" stroke-linecap="round" stroke-miterlimit="10" stroke-dasharray="4.8459,6.7842" cx="239.416" cy="217.5" r="24.069"/>
	</g>
</g>
<g id="Vehicle">
	<path id="Van_1_" fill="#FFFFFF" d="M254.58,294.088c-0.766-1.686-1.061-3.322-1.219-5.111c-0.209-2.377-0.239-4.978-2.729-6.355
		c-5.59-3.096-9.85-7.797-14.428-12.063c-2.574-2.402-5.361-3.438-8.781-3.42c-12.455,0.061-24.856,0.023-37.424,0.023v-0.043
		c-5.914,0-13.032-0.006-19.579,0c-6.417,0.007-12.805,0.055-19.222,0.023c-1.667-0.006-2.679,0.527-2.796,2.317
		c-0.036,0.631-0.195,1.251-0.257,1.882c-0.63,6.645-0.852,13.307-0.784,19.975c0.006,0.762,0.159,1.691-0.215,2.238
		c-1.385,2.059-0.797,4.309-0.889,6.483c-0.079,1.877,0.951,2.832,2.783,2.887c1.9,0.056,3.813-0.03,5.713,0.068
		c1.606,0.079,2.47-0.251,2.832-2.134c0.809-4.155,4.578-7.012,8.636-6.957c4.058,0.05,7.821,2.949,8.489,6.885
		c0.313,1.845,1.14,2.212,2.79,2.206c16.077-0.037,32.154-0.031,48.23,0c1.545,0,2.367-0.351,2.728-2.084
		c0.92-4.357,4.549-7.116,8.771-7.007c4.242,0.11,7.676,3.041,8.496,7.373c0.215,1.158,0.613,1.734,1.863,1.502
		c0.619-0.109,1.264-0.073,1.895-0.135C254.17,302.189,256.535,298.391,254.58,294.088z M242.163,279.709
		c-0.319,0.814-1.104,0.741-1.79,0.748c-2.729,0.018-5.455,0.006-8.184,0.006c-2.728,0-5.455-0.02-8.183,0.006
		c-1.502,0.02-2.194-0.644-2.237-2.162c-0.062-2.092-0.203-4.176-0.354-6.26c-0.11-1.514,0.446-2.255,2.054-2.169
		c2.973,0.153,5.951,0.239,8.93,0.343c0.896,0.031,1.552,0.502,2.152,1.086c2.285,2.193,4.578,4.389,6.854,6.602
		C241.898,278.391,242.48,278.904,242.163,279.709z M251.994,289.484c-0.57,0.195-1.116,0.056-1.612-0.281
		c-0.846-0.583-1.489-3.027-1.091-4.008c0.214-0.541,0.631-0.534,1.079-0.51c0.711,0.043,1.452,0.123,1.673,0.943
		c0.232,0.846,0.344,1.723,0.49,2.489C252.563,288.73,252.607,289.275,251.994,289.484z"/>
	<path id="Light_1_" fill="#F7931E" d="M251.994,289.484c-0.57,0.195-1.116,0.056-1.612-0.281c-0.846-0.583-1.489-3.027-1.091-4.008
		c0.214-0.541,0.631-0.534,1.079-0.51c0.711,0.043,1.452,0.123,1.673,0.943c0.232,0.846,0.344,1.723,0.49,2.489
		C252.563,288.73,252.607,289.275,251.994,289.484z"/>
	<path id="Wheels_1_" fill="#333333" d="M166.22,294.833c-3.931,0.017-7.286,3.394-7.24,7.291c0.045,3.834,3.332,7.08,7.217,7.137
		c3.875,0.063,7.051-3.182,7.057-7.198C173.26,298.05,170.111,294.814,166.22,294.833z M166.111,305.947
		c-1.931,0-3.794-1.813-3.823-3.717c-0.029-2.125,1.657-3.879,3.76-3.906c2.28-0.029,3.892,1.462,3.932,3.65
		C170.02,304.232,168.351,305.941,166.111,305.947z M237.117,294.898c-3.764-0.073-7.141,3.246-7.186,7.072
		c-0.041,3.871,3.286,7.227,7.202,7.26c3.86,0.035,6.999-3.188,6.999-7.181C244.134,298.043,241.132,294.979,237.117,294.898z
		 M237.084,305.928c-1.984,0.034-3.873-1.83-3.878-3.82c0-2.053,1.778-3.779,3.872-3.764c2.257,0.018,3.82,1.563,3.804,3.752
		C240.865,304.257,239.244,305.895,237.084,305.928z"/>
	<path id="Window_1_" fill="#4D4D4D" d="M242.163,279.709c-0.319,0.814-1.104,0.741-1.79,0.748
		c-2.729,0.018-5.455,0.006-8.184,0.006c-2.728,0-5.455-0.02-8.183,0.006c-1.502,0.02-2.194-0.644-2.237-2.162
		c-0.062-2.092-0.203-4.176-0.354-6.26c-0.11-1.514,0.446-2.255,2.054-2.169c2.973,0.153,5.951,0.239,8.93,0.343
		c0.896,0.031,1.552,0.502,2.152,1.086c2.285,2.193,4.578,4.389,6.854,6.602C241.898,278.391,242.48,278.904,242.163,279.709z"/>
	<path id="Smoke1_1_" fill="#999999" d="M126.714,288.537c0.748-0.372,1.57-0.434,2.321-0.244c0.322-0.619,0.836-1.145,1.508-1.475
		c1.569-0.772,3.456-0.215,4.363,1.242c0.013-0.011,0.022-0.016,0.04-0.021c1.679-0.829,3.707-0.137,4.531,1.541
		c0.31,0.628,0.406,1.305,0.316,1.949c0.676,0.311,1.255,0.854,1.609,1.572c0.824,1.676,0.135,3.707-1.542,4.531
		c-0.674,0.333-1.404,0.42-2.094,0.295c-0.322,0.657-0.847,1.217-1.553,1.563c-1.516,0.746-3.328,0.25-4.266-1.096
		c-1.651,0.75-3.611,0.054-4.42-1.59c-0.317-0.646-0.414-1.34-0.309-2c-0.865-0.264-1.616-0.865-2.047-1.738
		C124.348,291.393,125.037,289.359,126.714,288.537z"/>
	<path id="Smoke2_1_" fill="#999999" d="M110.887,277.744c-0.368,0.004-0.706-0.131-0.968-0.35
		c-0.246,0.186-0.551,0.295-0.881,0.297c-0.771,0.006-1.412-0.576-1.493-1.328c-0.007,0.002-0.012,0.002-0.02,0.002
		c-0.825,0.007-1.497-0.657-1.503-1.48c-0.002-0.308,0.089-0.595,0.248-0.834c-0.209-0.253-0.334-0.578-0.337-0.932
		c-0.006-0.823,0.657-1.496,1.48-1.503c0.331-0.003,0.637,0.103,0.887,0.284c0.254-0.199,0.57-0.321,0.916-0.322
		c0.745-0.006,1.368,0.538,1.483,1.252c0.799,0.02,1.443,0.67,1.449,1.479c0.002,0.315-0.092,0.609-0.26,0.852
		c0.292,0.271,0.476,0.654,0.479,1.082C112.372,277.063,111.709,277.738,110.887,277.744z"/>
	<path id="Smoke3_1_" fill="#999999" d="M123.983,282.559c0,1.273-0.938,2.326-2.158,2.5c-0.394,0.869-1.269,1.476-2.293,1.476
		c-1.009,0-1.884-0.591-2.288-1.446c-0.038,0.004-0.077,0.004-0.115,0.004c-1.399,0-2.533-1.134-2.533-2.531
		c0-1.399,1.134-2.533,2.533-2.533c0.197,0,0.385,0.022,0.567,0.066c0.394-0.89,1.284-1.51,2.317-1.51
		c1.077,0,1.99,0.668,2.355,1.615C123.315,280.563,123.983,281.48,123.983,282.559z"/>

		<linearGradient id="Lines_2_" gradientUnits="userSpaceOnUse" x1="199" y1="-25" x2="270" y2="-25" gradientTransform="matrix(1 0 0 -1 -50 261)">
		<stop  offset="0" style="stop-color:#152096"/>
		<stop  offset="1" style="stop-color:#141E91"/>
	</linearGradient>
	<path id="Lines_1_" fill="none" stroke="url(#Lines_2_)" stroke-width="3" stroke-miterlimit="10" d="M177,289.5h-28 M220,282.5
		h-16"/>
	<g id="DelOfficeLogo_1_">

			<linearGradient id="SVGID_1_" gradientUnits="userSpaceOnUse" x1="228.0566" y1="-23.21" x2="252.6748" y2="-23.21" gradientTransform="matrix(1 0 0 -1 -50 261)">
			<stop  offset="0" style="stop-color:#141E91"/>
			<stop  offset="1" style="stop-color:#152096"/>
		</linearGradient>
		<path fill="url(#SVGID_1_)" d="M202.091,283.098c-0.282-0.143-0.637-0.213-1.065-0.213H199.5c-0.524,0-0.946,0.074-1.263,0.225
			c-0.466,0.207-0.698,0.524-0.698,0.953v1.369c0,0.314,0.151,0.594,0.453,0.827c0.212,0.164,0.543,0.271,0.992,0.317
			c0.089,0.011,0.222,0.017,0.397,0.021c0.174,0.004,2.301,0.004,2.576,0.004c0.202,0,0.303-0.103,0.303-0.305
			c0-0.254-0.101-0.38-0.303-0.38c-0.266,0-2.389-0.006-2.561-0.017c-0.171-0.014-0.303-0.029-0.394-0.051
			c-0.413-0.102-0.62-0.326-0.62-0.679v-0.026h4.063c0.152,0,0.229-0.111,0.229-0.336v-0.896
			C202.676,283.551,202.48,283.277,202.091,283.098z M201.879,284.438h-3.522v-0.428c0-0.188,0.17-0.313,0.515-0.378
			c0.242-0.047,0.691-0.069,1.344-0.069c1.106,0,1.664,0.141,1.664,0.418L201.879,284.438L201.879,284.438z M202.091,283.098
			c-0.282-0.143-0.637-0.213-1.065-0.213H199.5c-0.524,0-0.946,0.074-1.263,0.225c-0.466,0.207-0.698,0.524-0.698,0.953v1.369
			c0,0.314,0.151,0.594,0.453,0.827c0.212,0.164,0.543,0.271,0.992,0.317c0.089,0.011,0.222,0.017,0.397,0.021
			c0.174,0.004,2.301,0.004,2.576,0.004c0.202,0,0.303-0.103,0.303-0.305c0-0.254-0.101-0.38-0.303-0.38
			c-0.266,0-2.389-0.006-2.561-0.017c-0.171-0.014-0.303-0.029-0.394-0.051c-0.413-0.102-0.62-0.326-0.62-0.679v-0.026h4.063
			c0.152,0,0.229-0.111,0.229-0.336v-0.896C202.676,283.551,202.48,283.277,202.091,283.098z M201.879,284.438h-3.522v-0.428
			c0-0.188,0.17-0.313,0.515-0.378c0.242-0.047,0.691-0.069,1.344-0.069c1.106,0,1.664,0.141,1.664,0.418L201.879,284.438
			L201.879,284.438z M183.191,281.924c-0.289-0.124-0.786-0.186-1.489-0.186h-1.387c-1.505,0-2.258,0.441-2.258,1.322v2.256
			c0,0.496,0.27,0.854,0.81,1.074c0.354,0.155,0.836,0.232,1.448,0.232h1.387c1.511,0,2.267-0.438,2.267-1.313v-2.252
			C183.969,282.504,183.709,282.124,183.191,281.924z M183.078,285.292c0,0.399-0.449,0.599-1.349,0.599h-1.417
			c-0.911,0-1.366-0.199-1.366-0.599v-2.209c0-0.412,0.455-0.618,1.366-0.618h1.413c0.902,0,1.353,0.206,1.353,0.618V285.292
			L183.078,285.292z M183.191,281.924c-0.289-0.124-0.786-0.186-1.489-0.186h-1.387c-1.505,0-2.258,0.441-2.258,1.322v2.256
			c0,0.496,0.27,0.854,0.81,1.074c0.354,0.155,0.836,0.232,1.448,0.232h1.387c1.511,0,2.267-0.438,2.267-1.313v-2.252
			C183.969,282.504,183.709,282.124,183.191,281.924z M183.078,285.292c0,0.399-0.449,0.599-1.349,0.599h-1.417
			c-0.911,0-1.366-0.199-1.366-0.599v-2.209c0-0.412,0.455-0.618,1.366-0.618h1.413c0.902,0,1.353,0.206,1.353,0.618V285.292
			L183.078,285.292z M187.031,283.124c0,0.262-0.104,0.394-0.311,0.394h-1.292v2.791c0,0.211-0.105,0.315-0.313,0.315
			s-0.33-0.008-0.365-0.026c-0.112-0.039-0.168-0.137-0.168-0.289v-3.438c0-0.758,0.632-1.135,1.898-1.135
			c0.216,0,0.352,0.012,0.405,0.035c0.098,0.049,0.147,0.168,0.147,0.356c0,0.209-0.104,0.313-0.311,0.313
			c-0.38,0-0.627,0.009-0.743,0.023c-0.358,0.055-0.538,0.168-0.538,0.346h1.28C186.927,282.813,187.031,282.915,187.031,283.124z
			 M184.582,286.309v-3.438c0-0.758,0.632-1.135,1.898-1.135c0.216,0,0.352,0.012,0.405,0.035c0.098,0.049,0.147,0.168,0.147,0.356
			c0,0.209-0.104,0.313-0.311,0.313c-0.38,0-0.627,0.009-0.743,0.023c-0.358,0.055-0.538,0.168-0.538,0.346h1.28
			c0.207,0,0.311,0.104,0.311,0.313c0,0.262-0.104,0.394-0.311,0.394h-1.292v2.791c0,0.211-0.105,0.315-0.313,0.315
			s-0.33-0.008-0.365-0.026C184.638,286.559,184.582,286.461,184.582,286.309 M189.88,283.124c0,0.262-0.104,0.394-0.313,0.394
			h-1.292v2.791c0,0.211-0.104,0.315-0.313,0.315s-0.331-0.008-0.365-0.026c-0.112-0.039-0.169-0.137-0.169-0.289v-3.438
			c0-0.758,0.633-1.135,1.898-1.135c0.216,0,0.352,0.012,0.405,0.035c0.099,0.049,0.148,0.168,0.148,0.356
			c0,0.209-0.104,0.313-0.313,0.313c-0.38,0-0.627,0.009-0.742,0.023c-0.358,0.055-0.538,0.168-0.538,0.346h1.28
			C189.776,282.813,189.88,282.915,189.88,283.124z M187.429,286.309v-3.438c0-0.758,0.633-1.135,1.898-1.135
			c0.216,0,0.352,0.012,0.405,0.035c0.099,0.049,0.148,0.168,0.148,0.356c0,0.209-0.104,0.313-0.313,0.313
			c-0.38,0-0.627,0.009-0.742,0.023c-0.358,0.055-0.538,0.168-0.538,0.346h1.28c0.208,0,0.313,0.104,0.313,0.313
			c0,0.262-0.104,0.394-0.313,0.394h-1.292v2.791c0,0.211-0.104,0.315-0.313,0.315s-0.331-0.008-0.365-0.026
			C187.485,286.559,187.429,286.461,187.429,286.309 M197.224,286.331c0,0.211-0.249,0.317-0.511,0.317h-2.546
			c-0.601,0-1.035-0.059-1.299-0.174c-0.454-0.182-0.682-0.513-0.682-0.99v-1.517c0-0.778,0.603-1.167,1.804-1.167h2.767
			c0.22,0,0.446,0.119,0.446,0.356s-0.226,0.356-0.446,0.356h-2.706c-0.678,0-1.019,0.144-1.019,0.43v1.506
			c0,0.324,0.385,0.486,1.158,0.486h2.599C197,285.938,197.224,286.068,197.224,286.331z M197.224,286.331
			c0,0.211-0.249,0.317-0.511,0.317h-2.546c-0.601,0-1.035-0.059-1.299-0.174c-0.454-0.182-0.682-0.513-0.682-0.99v-1.517
			c0-0.778,0.603-1.167,1.804-1.167h2.767c0.22,0,0.446,0.119,0.446,0.356s-0.226,0.356-0.446,0.356h-2.706
			c-0.678,0-1.019,0.144-1.019,0.43v1.506c0,0.324,0.385,0.486,1.158,0.486h2.599C197,285.938,197.224,286.068,197.224,286.331z
			 M191.461,283.136v3.23c0,0.211-0.105,0.315-0.317,0.315c-0.206,0-0.327-0.009-0.361-0.027c-0.11-0.041-0.165-0.137-0.165-0.288
			v-3.23c0-0.208,0.105-0.312,0.317-0.312c0.203,0,0.322,0.01,0.357,0.027C191.405,282.893,191.461,282.988,191.461,283.136z
			 M191.144,286.684c-0.206,0-0.327-0.01-0.361-0.029c-0.11-0.039-0.165-0.135-0.165-0.287v-3.23c0-0.207,0.105-0.312,0.317-0.312
			c0.203,0,0.322,0.01,0.357,0.028c0.112,0.039,0.168,0.135,0.168,0.282v3.23C191.461,286.577,191.355,286.684,191.144,286.684"/>
		<path fill="#E02927" d="M170.018,281.695c-0.091-0.021-0.209-0.031-0.359-0.031c-0.209,0-0.313,0.105-0.313,0.316v0.75h-2.528
			c-1.286,0-1.953,0.398-2,1.195c-0.017,0.266-0.024,0.606-0.024,1.027c0,0.208,0.004,0.377,0.012,0.504
			c0.043,0.725,0.718,1.087,2.024,1.087h1.292c0.508,0,0.943-0.082,1.304-0.245c0.509-0.213,0.765-0.523,0.765-0.938v-3.383
			C170.19,281.831,170.133,281.736,170.018,281.695z M169.346,285.348c0,0.324-0.436,0.487-1.308,0.487h-1.22
			c-0.361,0-0.604-0.017-0.726-0.048c-0.286-0.072-0.428-0.234-0.428-0.48v-1.363c0-0.334,0.377-0.502,1.134-0.502h2.548V285.348
			L169.346,285.348z M176.657,286.518c-0.115-0.043-0.172-0.14-0.172-0.289v-4.256c0-0.209,0.104-0.313,0.313-0.313
			c0.195,0,0.317,0.008,0.365,0.023c0.112,0.037,0.168,0.133,0.168,0.289v4.256c0,0.211-0.104,0.316-0.313,0.316
			C176.812,286.546,176.692,286.536,176.657,286.518L176.657,286.518z M175.224,283.052c-0.281-0.143-0.637-0.213-1.065-0.213
			h-1.528c-0.524,0-0.944,0.075-1.262,0.226c-0.466,0.205-0.697,0.523-0.697,0.953v1.366c0,0.318,0.151,0.595,0.452,0.83
			c0.212,0.164,0.543,0.271,0.992,0.315c0.091,0.012,0.223,0.019,0.398,0.021c0.174,0.004,2.301,0.008,2.576,0.008
			c0.202,0,0.302-0.104,0.302-0.307c0-0.255-0.1-0.381-0.302-0.381c-0.266,0-2.389-0.008-2.56-0.018
			c-0.172-0.013-0.303-0.027-0.395-0.049c-0.412-0.102-0.619-0.326-0.619-0.678V285.1h4.064c0.152,0,0.228-0.113,0.228-0.338v-0.895
			C175.808,283.506,175.614,283.232,175.224,283.052z M175.011,284.393h-3.522v-0.426c0-0.189,0.171-0.314,0.515-0.38
			c0.243-0.048,0.691-0.069,1.344-0.069c1.109,0,1.663,0.14,1.663,0.418L175.011,284.393L175.011,284.393z M190.69,282.116
			c-0.118-0.08-0.176-0.189-0.176-0.329c0-0.139,0.059-0.248,0.176-0.328c0.102-0.07,0.226-0.104,0.374-0.104
			c0.147,0,0.271,0.033,0.373,0.104c0.117,0.08,0.176,0.189,0.176,0.328c0,0.14-0.059,0.249-0.176,0.329
			c-0.102,0.069-0.226,0.104-0.373,0.104C190.916,282.221,190.792,282.186,190.69,282.116L190.69,282.116z"/>
	</g>
</g>
</svg>
