<?xml version="1.0" encoding="utf-8"?>
<!-- Generator: Adobe Illustrator 22.0.0, SVG Export Plug-In . SVG Version: 6.00 Build 0)  -->
<svg version="1.1" id="Layer_1" xmlns="http://www.w3.org/2000/svg" xmlns:xlink="http://www.w3.org/1999/xlink" x="0px" y="0px"
	 viewBox="0 0 125 52" style="enable-background:new 0 0 125 52;" xml:space="preserve">
<path d="M111.1,16.7L111.1,16.7c-3.3,0-6.6,0-10,0c-1.9-0.1-3.4-1.5-3.4-3.2c0-1.6,1.4-3.1,3.3-3.3c0.2,0,0.5,0,0.7,0
	c6.3,0,12.7,0,19,0c2.2,0,3.8,1.4,3.9,3.2c0,1.9-1.6,3.3-4,3.3c-0.3,0-0.6,0-0.9,0H111.1z M111.2,4.2c0-1.8-1.5-3.3-3.4-3.3
	c-4.5-0.1-8.9-0.1-13.4,0c-2.8,0.1-4.3,2.6-3,4.8c0.7,1.2,1.8,1.6,3.1,1.7c1.2,0,2.3,0,3.5,0h3.5c0,0,0,0,0,0c2.1,0,4.2,0,6.2,0
	C109.7,7.3,111.2,5.9,111.2,4.2z M109.6,25.9c2.7,0.7,5.5,0.7,8.2,0c1.4-0.4,2.3-1.9,2.1-3.2c-0.1-1.3-1.5-2.7-2.9-2.8
	c-1.2-0.1-2.3,0-3.5,0c-1.1,0-2.2-0.1-3.2,0c-1.6,0.1-2.6,1.1-2.8,2.6C107.3,23.9,108.1,25.5,109.6,25.9z M70.3,45
	c0,3.4,2.8,6.2,6.2,6.2c3.4,0,6.2-2.8,6.2-6.2c0-3.4-2.8-6.2-6.2-6.2C73.1,38.9,70.3,41.6,70.3,45z M11.9,45c0,3.4,2.8,6.2,6.2,6.2
	c3.4,0,6.2-2.8,6.2-6.2c0-3.4-2.8-6.2-6.2-6.2C14.6,38.9,11.9,41.6,11.9,45z M2.2,20.4L24.9,1.9c0.9-0.7,1.9-1.1,3-1.1h39.6l0,0h0.4
	c5.3,0,10.5,0,15.8,0c0.6,0,1.3,0,1.9,0.1c1.6,0.3,2.9,1.7,3,3.1c0.1,1.5-1.3,3-3,3.3c-0.5,0.1-1.1,0.1-1.6,0.1c-1.9,0-3.7,0-5.6,0
	c-0.5,0-1.1,0-1.6,0.1c-0.8,0.1-1.1,0.8-1.1,1.5c0,0.8,0.5,1.1,1.2,1.1c0.5,0,1.1,0,1.6,0c4.3,0,8.7,0,13,0c0.9,0,1.9,0.1,2.7,0.5
	c1.6,0.7,2.2,2.2,1.8,3.8c-0.3,1.4-1.4,2.2-3.1,2.2c-1.8,0-3.7,0-5.6,0c-1.8,0-3.6-0.1-5.3,0.1c-1.3,0.1-1.8,0.7-1.7,1.7
	c0.1,1.1,0.9,1.4,1.8,1.4c0.5,0,1.1,0,1.6,0c5.7,0,11.3,0,16.9,0c0.6,0,1.2,0,1.8,0c1.5,0.2,2.6,1.1,2.8,2.3c0.3,1.6-0.3,3-1.8,3.6
	c-0.8,0.4-1.8,0.5-2.7,0.5c-4.9,0-9.9,0-14.9,0c-0.6,0-1.3-0.1-1.8,0.1c-0.5,0.2-1,0.8-1,1.3c0,0.4,0.6,1.1,1,1.2
	c0.6,0.2,1.4,0.1,2.1,0.1c7.3,0,14.7,0,22,0c0.7,0,1.4,0,2.1,0.1c1.5,0.3,2.7,1.7,2.8,3.1c0,1.4-1.2,2.9-2.8,3.3
	c-0.7,0.1-1.4,0.1-2.1,0.1c-5.4,0-10.8,0-16.2,0c-0.6,0-1.3-0.1-1.8,0.1c-0.6,0.3-1.2,0.8-1.4,1.3c-0.3,0.8,0.5,1.2,1.1,1.5
	c0.5,0.2,1.1,0.2,1.6,0.2c3,0,6,0,9.1,0c0.8,0,1.6,0,2.3,0.1c1.6,0.3,2.4,1.3,2.5,2.9c0.1,2-1,3.2-3.1,3.2c-3.9,0.1-7.7,0-11.6,0
	c-0.5,0-1,0-1.4-0.1c-1.1-0.2-2.1-0.6-2.9-1.3l-1.6-2.4v0c-0.3-0.7-0.7-1.3-1.2-1.9c0,0,0,0,0,0c-1.6-2-4.1-3.2-6.8-3.2
	c-3.9,0-7.1,2.4-8.4,5.9c-0.7,1.9-2.5,3.1-4.5,3.1H30.9c-2,0-3.8-1.2-4.5-3.1c-1.2-3.4-4.5-5.9-8.4-5.9s-7.1,2.4-8.4,5.9
	c-0.3,0.9-1,1.7-1.8,2.2C7.1,44.7,6.2,45,5.2,45c-2.7,0-4.8-2.2-4.8-4.8V24.1C0.4,22.7,1,21.3,2.2,20.4z M15.8,19.3h19.7
	c0.9,0,1.6-0.7,1.6-1.6V7.1c0-0.9-0.7-1.6-1.6-1.6h-8c-0.4,0-0.8,0.1-1.1,0.4L14.8,16.4C13.7,17.4,14.4,19.3,15.8,19.3z"/>
</svg>
