<?xml version="1.0" encoding="utf-8"?>
<!-- Generator: Adobe Illustrator 22.0.0, SVG Export Plug-In . SVG Version: 6.00 Build 0)  -->
<svg version="1.1" xmlns="http://www.w3.org/2000/svg" xmlns:xlink="http://www.w3.org/1999/xlink" x="0px" y="0px"
	 viewBox="0 0 482.7 150" style="enable-background:new 0 0 482.7 150;" xml:space="preserve">
<style type="text/css">
	.st0{display:none;}
	.st1{display:inline;}
	.st2{fill:#152096;}
	.st3{fill:#E02827;}
	.st4{font-family:'DINPro-Black';}
	.st5{font-size:116.5858px;}
</style>
<g id="Layer_1" class="st0">
	<g class="st1">
		<path class="st2" d="M449.7,127.9c0.5,1.2,1,2.4,1.5,3.6c-7.1,2.8-14.8,4.3-22.8,4.3c-34.3,0-62.1-27.8-62.1-62.1
			c0-34.3,27.8-62.1,62.1-62.1s62.1,27.8,62.1,62.1c0,8.1-1.5,15.8-4.4,22.9c-6.1-2.5-12.1-5-18.2-7.5c1.9-4.8,2.9-10,2.9-15.4
			c0-23.5-19-42.5-42.5-42.5c-23.5,0-42.5,19-42.5,42.5s19,42.5,42.5,42.5c5.4,0,10.6-1,15.4-2.9
			C445.7,118.2,447.7,123.1,449.7,127.9z M430.2,73.8c0.2,0.1,0.5,0.1,0.8,0.3c6,2.5,12.1,4.9,18.1,7.4c0.2,0.1,0.4,0.2,0.6,0.2
			c0,0,0,0,0,0c0.3,0.1,0.5,0.2,0.8,0.3c0.2,0.1,0.4,0.2,0.6,0.3c1-2.7,1.5-5.5,1.5-8.5c0-13.5-10.9-24.3-24.3-24.3
			c-13.4,0-24.3,10.9-24.3,24.3s10.9,24.3,24.3,24.3c2.9,0,5.7-0.5,8.3-1.5c-0.2-0.5-0.4-1-0.6-1.4c0,0,0,0,0.1,0
			c-1.8-4.4-3.6-8.7-5.4-13.1c-0.8-1.9-1.6-3.8-2.3-5.7c-0.1-0.3-0.2-0.7-0.2-1C428.3,74.6,429,73.9,430.2,73.8z"/>
		<path class="st3" d="M492.1,105.1c-2.1-0.9-4.2-1.7-6.2-2.6c-0.2-0.1-0.3-0.1-0.5-0.2c-6.2-2.6-12.5-5.1-18.7-7.7
			c-1.4-0.6-2.7-1.1-4.1-1.7c-3.6-1.5-7.1-2.9-10.7-4.4c-1.4-0.6-2.7-1.1-4.1-1.7c-2.7-1.1-5.3-2.2-8-3.3c-0.2-0.1-0.4-0.1-0.6-0.2
			c-1,0-1.5,0.8-1.2,1.8c0.5,1.3,1,2.5,1.5,3.8c0.6,1.4,1.2,2.8,1.8,4.2c0.8,1.9,1.6,3.9,2.4,5.8c1.4,3.3,2.8,6.7,4.2,10
			c0.4,1,0.8,2,1.2,3c1,2.5,2,4.9,3,7.4c1.6,3.8,3.1,7.5,4.7,11.3c0.9,2.2,1.8,4.4,2.7,6.6c0.2,0.6,0.6,1,1.2,1c0.5,0,1-0.3,1.2-0.9
			c0.8-2.3,1.5-4.7,2.3-7c0.6-1.7,1.1-3.5,1.7-5.2c0.3-1.1,0.7-2.1,1-3.2c0.7-2.2,1.4-4.4,2.1-6.5c0.2-0.6,0.5-0.9,1.1-1.1
			c3.3-1,6.5-2.1,9.7-3.1c1-0.3,1.9-0.6,2.9-0.9c3-1,6-2,9.1-2.9c0.5-0.2,1-0.4,1.1-1C493,105.8,492.7,105.3,492.1,105.1z"/>
	</g>
	<text transform="matrix(1 0 0 1 11.9985 111.7939)" class="st1 st4 st5">target</text>
</g>
<g id="Layer_1_copy">
	<g>
		<path class="st2" d="M429.7,127.9c0.5,1.2,1,2.4,1.5,3.6c-7.1,2.8-14.8,4.3-22.8,4.3c-34.3,0-62.1-27.8-62.1-62.1
			c0-34.3,27.8-62.1,62.1-62.1s62.1,27.8,62.1,62.1c0,8.1-1.5,15.8-4.4,22.9c-6.1-2.5-12.1-5-18.2-7.5c1.9-4.8,2.9-10,2.9-15.4
			c0-23.5-19-42.5-42.5-42.5c-23.5,0-42.5,19-42.5,42.5s19,42.5,42.5,42.5c5.4,0,10.6-1,15.4-2.9
			C425.7,118.2,427.7,123.1,429.7,127.9z M410.2,73.8c0.2,0.1,0.5,0.1,0.8,0.3c6,2.5,12.1,4.9,18.1,7.4c0.2,0.1,0.4,0.2,0.6,0.2
			c0,0,0,0,0,0c0.3,0.1,0.5,0.2,0.8,0.3c0.2,0.1,0.4,0.2,0.6,0.3c1-2.7,1.5-5.5,1.5-8.5c0-13.5-10.9-24.3-24.3-24.3
			c-13.4,0-24.3,10.9-24.3,24.3s10.9,24.3,24.3,24.3c2.9,0,5.7-0.5,8.3-1.5c-0.2-0.5-0.4-1-0.6-1.4c0,0,0,0,0.1,0
			c-1.8-4.4-3.6-8.7-5.4-13.1c-0.8-1.9-1.6-3.8-2.3-5.7c-0.1-0.3-0.2-0.7-0.2-1C408.3,74.6,409,73.9,410.2,73.8z"/>
		<path class="st3" d="M472.1,105.1c-2.1-0.9-4.2-1.7-6.2-2.6c-0.2-0.1-0.3-0.1-0.5-0.2c-6.2-2.6-12.5-5.1-18.7-7.7
			c-1.4-0.6-2.7-1.1-4.1-1.7c-3.6-1.5-7.1-2.9-10.7-4.4c-1.4-0.6-2.7-1.1-4.1-1.7c-2.7-1.1-5.3-2.2-8-3.3c-0.2-0.1-0.4-0.1-0.6-0.2
			c-1,0-1.5,0.8-1.2,1.8c0.5,1.3,1,2.5,1.5,3.8c0.6,1.4,1.2,2.8,1.8,4.2c0.8,1.9,1.6,3.9,2.4,5.8c1.4,3.3,2.8,6.7,4.2,10
			c0.4,1,0.8,2,1.2,3c1,2.5,2,4.9,3,7.4c1.6,3.8,3.1,7.5,4.7,11.3c0.9,2.2,1.8,4.4,2.7,6.6c0.2,0.6,0.6,1,1.2,1c0.5,0,1-0.3,1.2-0.9
			c0.8-2.3,1.5-4.7,2.3-7c0.6-1.7,1.1-3.5,1.7-5.2c0.3-1.1,0.7-2.1,1-3.2c0.7-2.2,1.4-4.4,2.1-6.5c0.2-0.6,0.5-0.9,1.1-1.1
			c3.3-1,6.5-2.1,9.7-3.1c1-0.3,1.9-0.6,2.9-0.9c3-1,6-2,9.1-2.9c0.5-0.2,1-0.4,1.1-1C473,105.8,472.7,105.3,472.1,105.1z"/>
	</g>
	<path class="st2" d="M49.7,63.2V48.5h-9.9v-18H20.6v18h-5.7v14.7h5.7v27c0,8.6,5.6,18.5,19.5,18.5h9.6V92.7h-6.1
		c-2.6,0-3.8-1.4-3.8-3.8V63.2H49.7z"/>
	<path class="st2" d="M83.4,45.4c-10.6,0-16.3,2.2-22.7,8.6l11.9,11.9c3-3,5.6-4.4,9.9-4.4c6.6,0,9.4,2.1,9.4,7.8v1.6H79.6
		c-15.3,0-21.7,8.8-21.7,18.2c0,5.8,1.9,11.1,5.5,14.7c3.5,3.5,8.8,5.6,15,5.6c6.6,0,10.1-1.9,14-5.7v5.1H111V68.1
		C111,52.8,101.4,45.4,83.4,45.4z M91.9,85.2c0,3.3-0.5,5-2,6.4c-2,1.7-3.7,2.2-6.9,2.2c-4.7,0-6.9-2.2-6.9-5.1
		c0-3.1,2.2-5.1,6.6-5.1h9.1V85.2z"/>
	<g>
		<path class="st2" d="M156.9,45.4c-6.5,0-12,3-14.8,5.8v-5.1h-18.7v62.7h19.1V71.2c0-7.1,5.1-8.6,7.7-8.6c1,0,1.9,0.1,2.7,0.4
			l14.5-15.1C164.4,46.1,161.1,45.4,156.9,45.4z"/>
	</g>
	<g>
		<g>
			<path class="st3" d="M187.8,50.1v5.1c-3.1-3.1-6.1-5-10.6-5.6l-24,25.2c0,1.4,0,2.8,0,4.3c0,11.4,0.1,18.4,5.8,24.1
				c3.6,3.6,8.6,5.6,14.7,5.6c5.8,0,10-1.8,13.5-5.2v4.5c0,4.1-2.1,9.6-10.1,9.6c-4.3,0-7.8-1-10.7-4l-11.9,11.9
				c6.4,6.4,13.8,8.2,23.5,8.2c17.1,0,28.3-10.7,28.3-25.5V50.1H187.8z M179.7,91.6c-7,0-7.5-6.1-7.5-12.5c0-6.4,0.5-12.5,7.5-12.5
				c7,0,7.5,6.1,7.5,12.5C187.2,85.5,186.7,91.6,179.7,91.6z"/>
		</g>
	</g>
	<path class="st3" d="M272.2,75.7c0-17.2-10-30.3-28.2-30.3c-16.4,0-28.1,11.5-28.1,32.1c0,27,16,32.1,29.8,32.1
		c11.7,0,18-3.5,24.4-9.9l-11.4-11.4c-3.4,3.4-6.3,5.2-12.9,5.2c-7.1,0-11.1-4.7-11.1-9.8h37.5V75.7z M234.7,70.9
		c0-1.5,0.2-3.2,1-4.9c1.2-2.6,3.7-4.9,8.3-4.9c4.6,0,7.1,2.3,8.3,4.9c0.8,1.8,1,3.4,1,4.9H234.7z"/>
	<path class="st3" d="M314.3,63.2V48.5h-9.9v-18h-19.1v18h-5.7v14.7h5.7v27c0,8.6,5.6,18.5,19.5,18.5h9.6V92.7h-6.1
		c-2.6,0-3.9-1.4-3.9-3.8V63.2H314.3z"/>
</g>
</svg>
